<?xml version="1.0" encoding="utf-8"?>
<!-- Generator: Adobe Illustrator 24.1.3, SVG Export Plug-In . SVG Version: 6.00 Build 0)  -->
<svg version="1.1" id="Layer_1" xmlns="http://www.w3.org/2000/svg" xmlns:xlink="http://www.w3.org/1999/xlink" x="0px" y="0px"
	 viewBox="0 0 200 200" style="enable-background:new 0 0 200 200;" xml:space="preserve">
<style type="text/css">
	.st0{fill:#6B778C;}
</style>
<path class="st0" d="M128,28c4.5-4.5,12-4.5,16.5,0L161,44.5c4.5,4.5,4.5,12,0,16.5l-40,40c13,6.5,29.5,4,40-7l17.5-17.5
	c14-14,14-36.5,0-50L162,10c-14-14-36-14-50,0L94.5,27.5c-11,11-13,27-7,40L128,28z"/>
<path class="st0" d="M128,61c-4.5-4.5-12-4.5-16.5,0l-50,50c-4.5,4.5-4.5,12,0,16.5s12,4.5,16.5,0l50-50C132.5,73.5,132.5,66,128,61
	z"/>
<path class="st0" d="M61,161.5c-4.5,4.5-12,4.5-16.5,0L28,145c-4.5-4.5-4.5-12,0-16.5l40-40c-13-6.5-29.5-4-40,7l-17.5,16
	c-14,14-14,36.5,0,50l18,18c14,14,36.5,14,50,0l16-17.5c11-11,13-27,7-40L61,161.5L61,161.5z M190.5,146H165v-25.5
	c0-5.5-4.5-9.5-9.5-9.5c-5,0-9.5,4.5-9.5,9.5V146h-25.5c-5.5,0-9.5,4.5-9.5,9.5c0,5,4,9.5,9.5,9.5H146v25.5c0,5.5,4.5,9.5,9.5,9.5
	c5,0,9.5-4.5,9.5-9.5V165h25.5c5.5,0,9.5-4.5,9.5-9.5C200,150.5,195.5,146,190.5,146L190.5,146z"/>
</svg>
