<svg xmlns="http://www.w3.org/2000/svg" width="32.001" height="28.538" viewBox="0 0 32.001 28.538">
  <g id="Group_198" data-name="Group 198" transform="translate(-45.999 -336.615)">
    <path id="Subtraction_3" data-name="Subtraction 3" d="M16,28.538A15.572,15.572,0,0,1,7.652,26.16a10.229,10.229,0,0,1-4.737-6.54H.67A.669.669,0,0,1,.2,18.478l3.736-3.736a.669.669,0,0,1,.946,0l3.736,3.736a.669.669,0,0,1-.472,1.142H5.674a7.926,7.926,0,0,0,3.467,4.315A12.622,12.622,0,0,0,14.662,25.8V21.385h2.676V25.8a12.633,12.633,0,0,0,5.517-1.861,7.925,7.925,0,0,0,3.47-4.318H23.857a.669.669,0,0,1-.472-1.142l3.736-3.736a.669.669,0,0,1,.946,0L31.8,18.478a.669.669,0,0,1-.472,1.142H29.084A10.377,10.377,0,0,1,24.5,26.058,15.423,15.423,0,0,1,16,28.538Zm1.338-18.153H14.662V8.714a4.459,4.459,0,1,1,2.676,0v1.67ZM16,2.676A1.783,1.783,0,1,0,17.783,4.46,1.785,1.785,0,0,0,16,2.676Z" transform="translate(46 336.615)" fill="#cc7575"/>
    <g id="Group_197" data-name="Group 197" transform="translate(-15942 -13537.434)">
      <rect id="Rectangle_110" data-name="Rectangle 110" width="2.639" height="14.332" rx="1.319" transform="translate(16008.134 13883.731) rotate(45)" fill="#cc7575"/>
      <rect id="Rectangle_111" data-name="Rectangle 111" width="2.639" height="14.332" rx="1.319" transform="translate(16010 13893.865) rotate(135)" fill="#cc7575"/>
    </g>
  </g>
</svg>
