<svg xmlns="http://www.w3.org/2000/svg" width="32" height="28.538" viewBox="0 0 32 28.538">
  <path id="Path_207" data-name="Path 207" d="M33.7,18.478,29.96,14.742a.669.669,0,0,0-.946,0l-3.736,3.736a.669.669,0,0,0,.473,1.142h2.467c-1.1,3.641-5.158,5.814-8.987,6.179V12.04h3.344a.669.669,0,0,0,.669-.669V10.033a.669.669,0,0,0-.669-.669H19.231v-.65a4.459,4.459,0,1,0-2.675,0v.65H13.211a.669.669,0,0,0-.669.669v1.338a.669.669,0,0,0,.669.669h3.344V25.8c-3.835-.366-7.891-2.547-8.987-6.179h2.467a.669.669,0,0,0,.473-1.142L6.773,14.742a.669.669,0,0,0-.946,0L2.09,18.478a.669.669,0,0,0,.473,1.142H4.809c1.137,5.549,7.134,8.918,13.084,8.918,6.306,0,12-3.64,13.084-8.918h2.245A.669.669,0,0,0,33.7,18.478Zm-15.8-15.8A1.784,1.784,0,1,1,16.11,4.459,1.786,1.786,0,0,1,17.893,2.675Z" transform="translate(-1.893)" fill="#6b778c"/>
</svg>
