<svg xmlns="http://www.w3.org/2000/svg" width="43.811" height="43.811" viewBox="0 0 43.811 43.811">
  <g id="Group_196" data-name="Group 196" transform="translate(-21119.297 1434.579) rotate(-45)">
    <g id="Group_190" data-name="Group 190" transform="translate(6.86 10.001)">
      <path id="Subtraction_1" data-name="Subtraction 1" d="M18.139,24.955a15.573,15.573,0,0,1-8.347-2.378,10.226,10.226,0,0,1-4.737-6.54H2.81a.669.669,0,0,1-.473-1.142l3.736-3.736a.67.67,0,0,1,.947,0l3.736,3.736a.669.669,0,0,1-.473,1.142H7.815a7.924,7.924,0,0,0,3.466,4.315A12.62,12.62,0,0,0,16.8,22.216v-.011l1.357.111,1.319-.11v.011a12.635,12.635,0,0,0,5.517-1.861,7.925,7.925,0,0,0,3.47-4.318H26a.669.669,0,0,1-.473-1.142l3.736-3.736a.669.669,0,0,1,.946,0l3.736,3.736a.669.669,0,0,1-.472,1.142H31.224a10.377,10.377,0,0,1-4.583,6.438A15.422,15.422,0,0,1,18.139,24.955ZM19.477,3.73H16.8V3.712A4.44,4.44,0,0,1,13.68-.542,4.465,4.465,0,0,1,18.139-5,4.464,4.464,0,0,1,22.6-.542a4.44,4.44,0,0,1-3.121,4.254V3.73ZM18.139-2.326A1.786,1.786,0,0,0,16.356-.542a1.786,1.786,0,0,0,1.784,1.784A1.786,1.786,0,0,0,19.923-.542,1.786,1.786,0,0,0,18.139-2.326Z" transform="translate(15923 13930.198)" fill="#6b778c"/>
    </g>
    <rect id="Rectangle_105" data-name="Rectangle 105" width="4" height="5" rx="2" transform="translate(15946 13951)" fill="#6b778c"/>
    <rect id="Rectangle_107" data-name="Rectangle 107" width="4" height="5" rx="2" transform="translate(15946 13957)" fill="#6b778c"/>
    <rect id="Rectangle_106" data-name="Rectangle 106" width="4" height="5" rx="2" transform="translate(15946 13945)" fill="#6b778c"/>
  </g>
</svg>
