<svg xmlns="http://www.w3.org/2000/svg" width="36.739" height="36.739" viewBox="0 0 36.739 36.739">
  <g id="Group_195" data-name="Group 195" transform="translate(-21126.368 1427.509) rotate(-45)">
    <g id="Group_190" data-name="Group 190" transform="translate(6.86 10.001)">
      <path id="Path_202" data-name="Path 202" d="M33.7,18.478,29.96,14.742a.669.669,0,0,0-.946,0l-3.736,3.736a.669.669,0,0,0,.473,1.142h2.467c-1.1,3.641-5.158,5.814-8.987,6.179V17.3a4.459,4.459,0,1,0-2.675,0v8.5c-3.835-.366-7.891-2.547-8.987-6.179h2.467a.669.669,0,0,0,.473-1.142L6.773,14.742a.669.669,0,0,0-.946,0L2.09,18.478a.669.669,0,0,0,.473,1.142H4.809c1.137,5.549,7.134,8.918,13.084,8.918,6.306,0,12-3.64,13.084-8.918h2.245A.669.669,0,0,0,33.7,18.478Zm-15.8-7.221a1.784,1.784,0,1,1-1.784,1.784A1.786,1.786,0,0,1,17.893,11.257Z" transform="translate(15923.246 13926.615)" fill="#6b778c"/>
    </g>
    <rect id="Rectangle_105" data-name="Rectangle 105" width="4" height="5" rx="2" transform="translate(15946 13939)" fill="#6b778c"/>
    <rect id="Rectangle_106" data-name="Rectangle 106" width="4" height="5" rx="2" transform="translate(15946 13933)" fill="#6b778c"/>
  </g>
</svg>
