<?xml version="1.0" encoding="utf-8"?>
<!-- Generator: Adobe Illustrator 24.1.2, SVG Export Plug-In . SVG Version: 6.00 Build 0)  -->
<svg version="1.1" id="Layer_1" xmlns="http://www.w3.org/2000/svg" xmlns:xlink="http://www.w3.org/1999/xlink" x="0px" y="0px"
	 viewBox="0 0 215 200" style="enable-background:new 0 0 215 200;" xml:space="preserve">
<style type="text/css">
	.st0{fill:#6B778C;}
</style>
<path class="st0" d="M72.9,89.4H24.8c-11.4,0-20.6-9.2-20.6-20.6V20.6C4.2,9.2,13.4,0,24.8,0h48.1c11.4,0,20.6,9.2,20.6,20.6v48.1
	C93.5,80.1,84.3,89.4,72.9,89.4z M190.2,89.4h-48.1c-11.4,0-20.6-9.2-20.6-20.6V20.6c0-11.4,9.2-20.6,20.6-20.6h48.1
	c11.4,0,20.6,9.2,20.6,20.6v48.1C210.9,80.1,201.6,89.4,190.2,89.4z M73.8,200H25.6C14.3,200,5,190.8,5,179.4c0,0,0,0,0,0v-48.1
	c0-11.4,9.2-20.6,20.6-20.6c0,0,0,0,0,0h48.1c11.4,0,20.6,9.2,20.6,20.6v48.2C94.4,190.8,85.2,200,73.8,200L73.8,200z M167.1,199.8
	c-24.6,0-44.5-19.9-44.5-44.5v-20c0-13.4,11-24.4,24.4-24.4h20c24.5,0,44.4,19.9,44.4,44.4C211.5,179.9,191.6,199.8,167.1,199.8
	L167.1,199.8z M147,125.7c-5.3,0-9.6,4.3-9.6,9.6v20c0,16.3,13.3,29.6,29.6,29.6c16.4,0,29.6-13.3,29.6-29.7
	c0-16.3-13.3-29.6-29.6-29.6H147z"/>
</svg>
