<?xml version="1.0" encoding="utf-8"?>
<!-- Generator: Adobe Illustrator 24.1.3, SVG Export Plug-In . SVG Version: 6.00 Build 0)  -->
<svg version="1.1" id="Layer_1" xmlns="http://www.w3.org/2000/svg" xmlns:xlink="http://www.w3.org/1999/xlink" x="0px" y="0px"
	 viewBox="0 0 200 200" style="enable-background:new 0 0 200 200;" xml:space="preserve">
<style type="text/css">
	.st0{fill:#6B778C;}
</style>
<path class="st0" d="M75,93.8H18.8C8.8,93.8,0,85,0,75V18.8C0,8.8,8.8,0,18.8,0H75c10,0,18.8,8.8,18.8,18.8V75
	C93.8,85,85,93.8,75,93.8z M75,200H18.8C8.8,200,0,191.2,0,181.2V125c0-10,8.8-18.8,18.8-18.8H75c10,0,18.8,8.8,18.8,18.8v55
	C93.8,191.2,85,200,75,200z M153.8,200c-26.2,0-47.5-21.2-47.5-46.2c0-26.2,21.2-46.2,46.2-46.2c26.2,0,46.2,21.2,46.2,46.2
	C200,178.8,178.7,200,153.8,200L153.8,200z M181.2,93.8H125c-10,0-18.8-8.8-18.8-18.8V18.8C106.2,8.8,115,0,125,0h55
	c11.2,0,20,8.8,20,18.8V75C200,85,191.2,93.8,181.2,93.8z"/>
</svg>
