<?xml version="1.0" encoding="utf-8"?>
<!-- Generator: Adobe Illustrator 24.1.3, SVG Export Plug-In . SVG Version: 6.00 Build 0)  -->
<svg version="1.1" id="Layer_1" xmlns="http://www.w3.org/2000/svg" xmlns:xlink="http://www.w3.org/1999/xlink" x="0px" y="0px"
	 viewBox="0 0 200 200" style="enable-background:new 0 0 200 200;" xml:space="preserve">
<style type="text/css">
	.st0{fill:#6B778C;}
</style>
<path class="st0" d="M115.2,147.2c-2.8,0-5.1-2.4-5.1-5.4V82.2c0-3,2.3-5.4,5.1-5.4c2.8,0,5.1,2.4,5.1,5.4v59.7
	C120.4,144.8,118.1,147.2,115.2,147.2L115.2,147.2z M84.4,147.2c-2.8,0-5.1-2.4-5.1-5.4V82.2c0-3,2.3-5.4,5.1-5.4
	c2.8,0,5.1,2.4,5.1,5.4v59.7C89.6,144.8,87.3,147.2,84.4,147.2L84.4,147.2z M166.6,55.1h-25.7V44.2c0-8.9-6.8-16.2-15.3-16.3H74.2
	c-8.5,0-15.4,7.3-15.4,16.3v10.9H33.1c-2.8,0-5.1,2.4-5.1,5.4c0,3,2.3,5.4,5.1,5.4h133.5c2.8,0,5.1-2.4,5.1-5.4
	S169.4,55.1,166.6,55.1z M69,44.2c0-3,2.3-5.4,5.1-5.4h51.5c1.3,0,2.7,0.6,3.6,1.6c0.9,1,1.5,2.4,1.4,3.8V55H69
	C69,55,69,44.2,69,44.2z M135.8,179.8H63.9c-8.5,0-15.4-7.3-15.4-16.3V82.1c0-3,2.3-5.4,5.1-5.4s5.1,2.4,5.1,5.4v81.5
	c0,3,2.3,5.4,5.1,5.4h71.9c2.8,0,5.1-2.4,5.1-5.4V82.3c0-3,2.3-5.4,5.1-5.4c2.8,0,5.1,2.4,5.1,5.4v81.2
	C151.2,172.5,144.3,179.8,135.8,179.8L135.8,179.8z"/>
</svg>
