<?xml version="1.0" standalone="no"?><!DOCTYPE svg PUBLIC "-//W3C//DTD SVG 1.1//EN" "http://www.w3.org/Graphics/SVG/1.1/DTD/svg11.dtd"><svg t="1590012719065" class="icon" viewBox="0 0 1024 1024" version="1.1" xmlns="http://www.w3.org/2000/svg" p-id="1924" xmlns:xlink="http://www.w3.org/1999/xlink" width="200" height="200"><defs><style type="text/css"></style></defs><path d="M589.963636 753.907071c-14.480808 0-26.246465-12.412121-26.246464-27.79798V420.719192c0-15.385859 11.765657-27.79798 26.246464-27.79798 14.480808 0 26.246465 12.412121 26.246465 27.79798v305.519192c0.129293 15.256566-11.636364 27.668687-26.246465 27.668687z m-157.737373 0c-14.480808 0-26.246465-12.412121-26.246465-27.79798V420.719192c0-15.385859 11.765657-27.79798 26.246465-27.79798 14.480808 0 26.246465 12.412121 26.246464 27.79798v305.519192c0.129293 15.256566-11.636364 27.668687-26.246464 27.668687zM852.945455 281.858586H721.454545v-55.59596c0.129293-45.769697-34.909091-83.006061-78.222222-83.264646H379.733333c-43.571717 0.129293-78.739394 37.365657-78.868687 83.264646v55.59596H169.373737c-14.480808 0-26.246465 12.412121-26.246464 27.79798S154.892929 337.454545 169.373737 337.454545h683.571718c14.480808 0 26.246465-12.412121 26.246464-27.797979s-11.765657-27.79798-26.246464-27.79798z m-499.587879-55.59596c0-15.385859 11.765657-27.79798 26.246464-27.79798h263.49899c6.852525 0 13.575758 2.973737 18.359596 8.145455 4.783838 5.171717 7.49899 12.282828 7.369697 19.523232v55.59596h-315.474747V226.262626z m341.850505 694.303031H327.111111c-43.571717-0.129293-78.739394-37.365657-78.868687-83.264647V420.20202c0-15.385859 11.765657-27.79798 26.246465-27.79798 14.480808 0 26.246465 12.412121 26.246465 27.79798v417.09899c0 15.385859 11.765657 27.79798 26.246464 27.79798h368.09697c14.480808 0 26.246465-12.412121 26.246465-27.79798V421.494949c0-15.385859 11.765657-27.79798 26.246464-27.797979 14.480808 0 26.246465 12.412121 26.246465 27.797979v415.676768c0.129293 46.028283-35.167677 83.393939-78.610101 83.39394z m0 0" p-id="1925"></path></svg>