<?xml version="1.0" standalone="no"?><!DOCTYPE svg PUBLIC "-//W3C//DTD SVG 1.1//EN" "http://www.w3.org/Graphics/SVG/1.1/DTD/svg11.dtd"><svg t="1590012653484" class="icon" viewBox="0 0 1024 1024" version="1.1" xmlns="http://www.w3.org/2000/svg" p-id="5705" xmlns:xlink="http://www.w3.org/1999/xlink" width="200" height="200"><defs><style type="text/css"></style></defs><path d="M981.138 1023.574H42.862a42.649 42.649 0 0 1 0-85.298h938.276a42.649 42.649 0 0 1 0 85.298zM153.323 872.596a85.298 85.298 0 0 1-81.886-62.267 81.46 81.46 0 0 1 0-47.34l56.723-178.7a42.649 42.649 0 0 1 10.236-16.632L330.742 366.78 632.696 64.4a127.947 127.947 0 0 1 180.832 0l60.561 60.561a127.947 127.947 0 0 1 0 180.832L572.135 607.32 379.362 807.77a42.649 42.649 0 0 1-19.619 11.515l-183.816 49.9a80.606 80.606 0 0 1-22.604 3.411z m52.031-253.334l-52.031 168.037 172.728-47.34L512 547.611l170.596-172.728-118.99-118.99L393.01 426.488z m143.3 158.654z m275.513-584.29l120.696 120.696 68.665-68.664a42.649 42.649 0 0 0 0-60.562l-60.135-60.135a42.649 42.649 0 0 0-60.562 0z" p-id="5706"></path></svg>