<?xml version="1.0" encoding="utf-8"?>
<!-- Generator: Adobe Illustrator 24.1.3, SVG Export Plug-In . SVG Version: 6.00 Build 0)  -->
<svg version="1.1" id="Layer_1" xmlns="http://www.w3.org/2000/svg" xmlns:xlink="http://www.w3.org/1999/xlink" x="0px" y="0px"
	 viewBox="0 0 200 200" style="enable-background:new 0 0 200 200;" xml:space="preserve">
<style type="text/css">
	.st0{fill:#6B778C;}
</style>
<path class="st0" d="M191.6,199.9H8.4c-4.6,0-8.3-3.7-8.3-8.3c0-4.6,3.7-8.3,8.3-8.3h183.3c4.6,0,8.3,3.7,8.3,8.3
	C199.9,196.2,196.2,199.9,191.6,199.9z M29.9,170.4c-7.5,0-14-5-16-12.2c-0.9-3-0.9-6.2,0-9.2L25,114.1c0.4-1.2,1.1-2.3,2-3.2
	l37.6-39.2l59-59.1c9.8-9.7,25.6-9.7,35.3,0l11.8,11.8c9.7,9.8,9.7,25.6,0,35.3l-59,58.9l-37.7,39.2c-1.1,1.1-2.4,1.9-3.8,2.2
	l-35.9,9.7C32.9,170.2,31.4,170.4,29.9,170.4L29.9,170.4z M40.1,120.9l-10.2,32.8l33.7-9.2L100,107l33.3-33.7L110.1,50L76.8,83.3
	L40.1,120.9z M121.9,37.8l23.6,23.6L158.9,48c3.3-3.2,3.3-8.5,0-11.8c0,0,0,0,0,0l-11.7-11.7c-3.2-3.3-8.5-3.3-11.8,0c0,0,0,0,0,0
	L121.9,37.8z"/>
</svg>
