<?xml version="1.0" encoding="utf-8"?>
<!-- Generator: Adobe Illustrator 25.0.0, SVG Export Plug-In . SVG Version: 6.00 Build 0)  -->
<svg version="1.1" id="Capa_1" xmlns="http://www.w3.org/2000/svg" xmlns:xlink="http://www.w3.org/1999/xlink" x="0px" y="0px"
	 viewBox="0 0 604 604" style="enable-background:new 0 0 604 604;" xml:space="preserve">
<style type="text/css">
	.st0{fill:#6B778C;}
</style>
<g>
	<g>
		<g>
			<path class="st0" d="M426.7,105.2l-86.6-87.5C334.7,12.3,328.3,8,321.2,5s-14.7-4.5-22.4-4.5h-239C27.7,0.5,1.7,26.6,1.7,58.6
				v454.2c0,32.1,26.1,58.1,58.1,58.1H370c10.6,8.8,22.3,15.9,35.1,21.3c17.5,7.4,36.1,11.2,55.3,11.2c19.1,0,37.7-3.8,55.3-11.2
				c16.9-7.2,32.1-17.4,45.1-30.4c13-13,23.3-28.2,30.4-45.1c7.4-17.5,11.2-36.1,11.2-55.3c0-19.1-3.8-37.7-11.2-55.3
				c-7.2-16.9-17.4-32.1-30.4-45.1c-13-13-28.2-23.3-45.1-30.4c-17.5-7.4-36.1-11.2-55.3-11.2c-5.7,0-11.3,0.3-16.8,1V146.1
				C443.5,130.7,437.5,116.2,426.7,105.2z M381.3,120.2h-52.7c-4.1,0-7.9-1.6-10.8-4.5c-2.9-2.9-4.5-6.7-4.5-10.8l0-53.4
				L381.3,120.2z M59.8,528.2c-8.5,0-15.3-6.8-15.3-15.3V58.6c0-8.5,6.8-15.3,15.3-15.3h210.7l0,61.5c0,15.5,6,30.1,17,41.1
				s25.6,17,41.1,17h72.1v169.6c-15.2,7-28.9,16.6-40.7,28.5c-13,13-23.3,28.2-30.4,45.1c-7.4,17.5-11.2,36.1-11.2,55.3
				s3.8,37.7,11.2,55.3c1.7,3.9,3.5,7.7,5.5,11.4L59.8,528.2L59.8,528.2z M460.3,560.6c-12.1,0-23.7-2.2-34.4-6.1
				c-15.1-5.6-28.4-14.7-39-26.4c-16-17.6-25.7-41-25.7-66.6c0-32.4,15.5-61.1,39.5-79.2c12.4-9.3,27-15.8,42.8-18.5
				c5.5-0.9,11.1-1.4,16.8-1.4c54.8,0,99.1,44.4,99.1,99.1S515.1,560.6,460.3,560.6z"/>
			<path class="st0" d="M460.3,604c-19.2,0-37.9-3.8-55.5-11.2c-12.7-5.4-24.5-12.5-35-21.2h-310c-32.3,0-58.6-26.3-58.6-58.6V58.6
				C1.2,26.3,27.5,0,59.8,0h239c7.8,0,15.4,1.5,22.6,4.5c7.2,3,13.6,7.3,19.1,12.9l86.6,87.5c10.9,11.1,17,25.7,17,41.2v173.8
				c5.4-0.6,10.9-0.9,16.3-0.9c19.2,0,37.9,3.8,55.5,11.2c17,7.2,32.2,17.4,45.3,30.5c13.1,13.1,23.3,28.3,30.5,45.3
				c7.4,17.6,11.2,36.3,11.2,55.5c0,19.2-3.8,37.9-11.2,55.5c-7.2,17-17.4,32.2-30.5,45.3c-13.1,13.1-28.3,23.3-45.3,30.5
				C498.2,600.2,479.5,604,460.3,604z M59.8,1C28,1,2.2,26.9,2.2,58.6v454.2c0,31.8,25.9,57.6,57.6,57.6h310.4l0.1,0.1
				c10.5,8.7,22.3,15.8,34.9,21.2c17.5,7.4,36,11.1,55.1,11.1c19.1,0,37.6-3.7,55.1-11.1c16.9-7.1,32-17.3,45-30.3
				c13-13,23.2-28.1,30.3-45c7.4-17.5,11.1-36,11.1-55.1c0-19.1-3.7-37.6-11.1-55.1c-7.1-16.9-17.3-32-30.3-45
				c-13-13-28.1-23.2-45-30.3c-17.5-7.4-36-11.1-55.1-11.1c-5.6,0-11.2,0.3-16.8,1L443,321v-175c0-15.3-5.9-29.7-16.7-40.5
				l-86.6-87.5c-5.4-5.4-11.7-9.7-18.8-12.6C313.9,2.5,306.5,1,298.8,1H59.8z M460.3,561.1c-11.9,0-23.5-2.1-34.6-6.2
				c-14.9-5.5-28.5-14.7-39.2-26.5c-16.7-18.4-25.9-42.1-25.9-67c0-31.5,14.5-60.6,39.7-79.6c12.6-9.5,27.5-16,43.1-18.6
				c5.6-1,11.3-1.4,16.9-1.4c54.9,0,99.6,44.7,99.6,99.6S515.3,561.1,460.3,561.1z M460.3,362.8c-5.6,0-11.2,0.5-16.7,1.4
				c-15.4,2.6-30.1,9-42.6,18.4c-25,18.8-39.3,47.6-39.3,78.8c0,24.6,9.1,48.1,25.6,66.3c10.6,11.7,24.1,20.8,38.8,26.2
				c10.9,4,22.5,6.1,34.2,6.1c54.4,0,98.6-44.3,98.6-98.6S514.7,362.8,460.3,362.8z M335.8,528.7h-276c-8.7,0-15.8-7.1-15.8-15.8
				V58.6c0-8.7,7.1-15.8,15.8-15.8H271l0,62c0,15.4,6,29.9,16.9,40.8c10.9,10.9,25.4,16.9,40.8,16.9h72.6v170.4l-0.3,0.1
				c-15.1,7-28.8,16.5-40.6,28.4c-13,13-23.2,28.1-30.3,45c-7.4,17.5-11.1,36-11.1,55.1s3.7,37.6,11.1,55.1
				c1.6,3.8,3.4,7.6,5.4,11.4L335.8,528.7z M59.8,43.8c-8.2,0-14.8,6.6-14.8,14.8v454.2c0,8.2,6.6,14.8,14.8,14.8h274.3
				c-1.9-3.5-3.6-7.1-5.1-10.7c-7.4-17.6-11.2-36.3-11.2-55.5s3.8-37.9,11.2-55.5c7.2-17,17.4-32.2,30.5-45.3
				c11.8-11.8,25.5-21.4,40.6-28.4V163.6h-71.6c-15.7,0-30.4-6.1-41.5-17.2s-17.2-25.8-17.2-41.5l0-61C270,43.8,59.8,43.8,59.8,43.8
				z M382.5,120.7h-53.9c-4.2,0-8.2-1.6-11.2-4.6c-3-3-4.6-7-4.6-11.2l0-54.6L382.5,120.7z M313.8,52.7l0,52.2c0,4,1.5,7.7,4.3,10.5
				c2.8,2.8,6.5,4.3,10.5,4.3h51.5L313.8,52.7z"/>
		</g>
		<g>
			<path class="st0" d="M106.6,154.7h108.9c11.8,0,21.4-9.6,21.4-21.4s-9.6-21.4-21.4-21.4H106.6c-11.8,0-21.4,9.6-21.4,21.4
				C85.2,145.1,94.8,154.7,106.6,154.7z"/>
			<path class="st0" d="M215.5,155.2H106.6c-12.1,0-21.9-9.8-21.9-21.9s9.8-21.9,21.9-21.9h108.9c12.1,0,21.9,9.8,21.9,21.9
				S227.6,155.2,215.5,155.2z M106.6,112.4c-11.5,0-20.9,9.4-20.9,20.9c0,11.5,9.4,20.9,20.9,20.9h108.9c11.5,0,20.9-9.4,20.9-20.9
				s-9.4-20.9-20.9-20.9C215.5,112.4,106.6,112.4,106.6,112.4z"/>
		</g>
		<g>
			<path class="st0" d="M106.6,306.9H338c11.8,0,21.4-9.6,21.4-21.4S349.8,264,338,264H106.6c-11.8,0-21.4,9.6-21.4,21.4
				C85.2,297.3,94.8,306.9,106.6,306.9z"/>
			<path class="st0" d="M338,307.4H106.6c-12.1,0-21.9-9.8-21.9-21.9c0-12.1,9.8-21.9,21.9-21.9H338c12.1,0,21.9,9.8,21.9,21.9
				C359.9,297.5,350.1,307.4,338,307.4z M106.6,264.5c-11.5,0-20.9,9.4-20.9,20.9c0,11.5,9.4,20.9,20.9,20.9H338
				c11.5,0,20.9-9.4,20.9-20.9c0-11.5-9.4-20.9-20.9-20.9H106.6z"/>
		</g>
		<g>
			<path class="st0" d="M271.8,416.8H106.6c-11.8,0-21.4,9.6-21.4,21.4s9.6,21.4,21.4,21.4h165.2c11.8,0,21.4-9.6,21.4-21.4
				S283.6,416.8,271.8,416.8z"/>
			<path class="st0" d="M271.8,460.2H106.6c-12.1,0-21.9-9.8-21.9-21.9s9.8-21.9,21.9-21.9h165.2c12.1,0,21.9,9.8,21.9,21.9
				S283.9,460.2,271.8,460.2z M106.6,417.3c-11.5,0-20.9,9.4-20.9,20.9s9.4,20.9,20.9,20.9h165.2c11.5,0,20.9-9.4,20.9-20.9
				s-9.4-20.9-20.9-20.9H106.6z"/>
		</g>
		<g>
			<path class="st0" d="M508.7,440.1h-26.9v-26.9c0-11.8-9.6-21.4-21.4-21.4c-6.8,0-12.9,3.2-16.8,8.2c-2.9,3.6-4.6,8.3-4.6,13.3
				v26.9H412c-4.2,0-8,1.2-11.3,3.2c-6.1,3.8-10.1,10.5-10.1,18.2s4,14.4,10.1,18.2c3.3,2,7.2,3.2,11.3,3.2h26.9v26.9
				c0,4.6,1.4,8.8,3.9,12.3c3.9,5.5,10.3,9.1,17.5,9.1c11.8,0,21.4-9.6,21.4-21.4v-26.9h26.9c11.8,0,21.4-9.6,21.4-21.4
				S520.5,440.1,508.7,440.1z"/>
			<path class="st0" d="M460.3,531.7c-7.1,0-13.9-3.5-18-9.4c-2.6-3.7-4-8-4-12.6v-26.4H412c-4.1,0-8.1-1.1-11.6-3.3
				c-6.5-4-10.4-11-10.4-18.6s3.9-14.6,10.4-18.6c3.5-2.2,7.5-3.3,11.6-3.3h26.4v-26.4c0-5,1.6-9.7,4.7-13.6
				c4.2-5.3,10.5-8.3,17.2-8.3c12.1,0,21.9,9.8,21.9,21.9v26.4h26.4c12.1,0,21.9,9.8,21.9,21.9s-9.8,21.9-21.9,21.9h-26.4v26.4
				C482.2,521.9,472.4,531.7,460.3,531.7z M412,440.6c-3.9,0-7.7,1.1-11,3.2c-6.2,3.9-9.9,10.5-9.9,17.8s3.7,13.9,9.9,17.8
				c3.3,2.1,7.1,3.2,11,3.2h27.4v27.4c0,4.3,1.3,8.5,3.8,12c3.9,5.6,10.3,8.9,17.1,8.9c11.5,0,20.9-9.4,20.9-20.9v-27.4h27.4
				c11.5,0,20.9-9.4,20.9-20.9s-9.4-20.9-20.9-20.9h-27.4v-27.4c0-11.5-9.4-20.9-20.9-20.9c-6.4,0-12.4,2.9-16.4,8
				c-2.9,3.7-4.5,8.2-4.5,13v27.4L412,440.6L412,440.6z"/>
		</g>
	</g>
</g>
</svg>
