<?xml version="1.0" encoding="utf-8"?>
<!-- Generator: Adobe Illustrator 24.1.2, SVG Export Plug-In . SVG Version: 6.00 Build 0)  -->
<svg version="1.1" id="Layer_1" xmlns="http://www.w3.org/2000/svg" xmlns:xlink="http://www.w3.org/1999/xlink" x="0px" y="0px"
	 viewBox="0 0 200 200" style="enable-background:new 0 0 200 200;" xml:space="preserve">
<style type="text/css">
	.st0{fill:#6B778C;}
</style>
<path class="st0" d="M118.8,168.8c-3.8,0-6.2-2.5-6.2-6.2v-75c0-1.2,1.3-3.8,2.5-5L153.8,50c1.2-1.2,1.2-3.8,0-3.8
	c0-1.2-1.2-2.5-3.8-2.5H50c-2.5,0-3.8,1.2-3.8,2.5S45,48.8,47.5,50l38.7,32.5c0,1.2,1.3,3.8,1.3,5v50c0,3.8-2.5,6.2-6.2,6.2
	s-6.2-2.5-6.2-6.2V90L38.8,60c-5-5-6.2-12.5-3.8-18.8c1.2-6.3,7.5-10,15-10h100c6.2,0,12.5,3.8,15,10s1.2,13.8-3.8,17.5L123.7,90
	v72.5C125,166.2,122.5,168.8,118.8,168.8z"/>
</svg>
