<?xml version="1.0" encoding="utf-8"?>
<!-- Generator: Adobe Illustrator 24.1.3, SVG Export Plug-In . SVG Version: 6.00 Build 0)  -->
<svg version="1.1" id="Layer_1" xmlns="http://www.w3.org/2000/svg" xmlns:xlink="http://www.w3.org/1999/xlink" x="0px" y="0px"
	 viewBox="0 0 200 200" style="enable-background:new 0 0 200 200;" xml:space="preserve">
<style type="text/css">
	.st0{fill:#6B778C;}
</style>
<path class="st0" d="M95.9,135.8l15.7-15.9l-41-41.6L54.9,94.2L95.9,135.8z M119.7,111.7l51.5-52.2l-41-41.6L78.6,70.1L119.7,111.7z
	 M31.5,118.6c-0.2,0.4-0.4,0.8-0.5,1.2l-21.8,57c-0.7,2.3,0,4.8,1.6,6.4c1.2,1.2,4,2,6.4,1.7l56.2-22.1c0.4-0.1,0.8-0.3,1.2-0.5l2,2
	c1.7,1.8,4,2.6,6.2,2.6c2.3,0,4.6-0.9,6.2-2.6l97.1-98.5c3.4-3.5,3.4-9.2,0-12.6L136.3,2.6c-1.7-1.7-4-2.6-6.2-2.6
	c-2.3,0-4.6,0.9-6.2,2.6l-97.1,98.5c-3.4,3.5-3.4,9.2,0,12.6L31.5,118.6L31.5,118.6z M183.3,200H39.4c-4.3,0-7.7-3.5-7.7-7.9
	c0-4.3,3.5-7.9,7.7-7.9h143.9c4.3,0,7.7,3.5,7.7,7.9C191.1,196.5,187.6,200,183.3,200L183.3,200z"/>
</svg>
