<?xml version="1.0" encoding="utf-8"?>
<!-- Generator: Adobe Illustrator 24.1.3, SVG Export Plug-In . SVG Version: 6.00 Build 0)  -->
<svg version="1.1" id="Layer_1" xmlns="http://www.w3.org/2000/svg" xmlns:xlink="http://www.w3.org/1999/xlink" x="0px" y="0px"
	 viewBox="0 0 200 200" style="enable-background:new 0 0 200 200;" xml:space="preserve">
<style type="text/css">
	.st0{fill:#6B778C;}
</style>
<path class="st0" d="M100,0C45,0,0,45,0,100s45,100,100,100s100-45,100-100S155,0,100,0z M100,171.4c-7.9,0-14.3-6.4-14.3-14.3
	c0-7.9,6.4-14.3,14.3-14.3c7.9,0,14.3,6.4,14.3,14.3C114.3,165,107.9,171.4,100,171.4z M114.3,100c0,7.9-6.4,14.3-14.3,14.3
	c-7.9,0-14.3-6.4-14.3-14.3V42.9c0-7.9,6.4-14.3,14.3-14.3c7.9,0,14.3,6.4,14.3,14.3V100z"/>
</svg>
