<svg xmlns="http://www.w3.org/2000/svg" width="33.772" height="28.538" viewBox="0 0 33.772 28.538">
  <g id="Group_204" data-name="Group 204" transform="translate(-15901.14 -14009.615)">
    <path id="Path_208" data-name="Path 208" d="M33.7,18.478,29.96,14.742a.669.669,0,0,0-.946,0l-3.736,3.736a.669.669,0,0,0,.473,1.142h2.467c-1.1,3.641-5.158,5.814-8.987,6.179V12.04h3.344a.669.669,0,0,0,.669-.669V10.033a.669.669,0,0,0-.669-.669H19.231v-.65a4.459,4.459,0,1,0-2.675,0v.65H13.211a.669.669,0,0,0-.669.669v1.338a.669.669,0,0,0,.669.669h3.344V25.8c-3.835-.366-7.891-2.547-8.987-6.179h2.467a.669.669,0,0,0,.473-1.142L6.773,14.742a.669.669,0,0,0-.946,0L2.09,18.478a.669.669,0,0,0,.473,1.142H4.809c1.137,5.549,7.134,8.918,13.084,8.918,6.306,0,12-3.64,13.084-8.918h2.245A.669.669,0,0,0,33.7,18.478Zm-15.8-15.8A1.784,1.784,0,1,1,16.11,4.459,1.786,1.786,0,0,1,17.893,2.675Z" transform="translate(15899.246 14009.615)" fill="#6b778c"/>
    <g id="Group_199" data-name="Group 199" transform="translate(-5208.06 15511.312) rotate(-45)">
      <rect id="Rectangle_110" data-name="Rectangle 110" width="2.259" height="12.268" rx="1.13" transform="translate(16006.675 13883.731) rotate(45)" fill="#6b778c"/>
      <rect id="Rectangle_111" data-name="Rectangle 111" width="2.259" height="12.268" rx="1.129" transform="translate(16008.272 13892.406) rotate(135)" fill="#6b778c"/>
    </g>
  </g>
</svg>
