<?xml version="1.0" encoding="utf-8"?>
<!-- Generator: Adobe Illustrator 24.1.3, SVG Export Plug-In . SVG Version: 6.00 Build 0)  -->
<svg version="1.1" id="图层_1" xmlns="http://www.w3.org/2000/svg" xmlns:xlink="http://www.w3.org/1999/xlink" x="0px" y="0px"
	 viewBox="0 0 200 200" style="enable-background:new 0 0 200 200;" xml:space="preserve">
<style type="text/css">
	.st0{fill:#6B778C;}
</style>
<path class="st0" d="M123.4,34.8c1.4,0.6,2.8,1.5,3.9,2.6L160,70.3c4.9,4.9,4.9,12.8,0,17.7c-1.1,1.1-2.4,2-3.8,2.6l-11.6,5.1
	l-21.8,21.8l-1.7,24c-0.5,6.9-6.5,12.1-13.4,11.6c-3-0.2-5.8-1.5-7.9-3.6l-21.1-21.2l-36,36.2l-8.9-8.8l36-36.2L48,97.5
	c-4.9-4.9-4.9-12.8,0-17.7c2.1-2.1,4.9-3.4,7.9-3.6l24.7-1.8L102,53l5-11.6C109.7,35,117,32.1,123.4,34.8L123.4,34.8L123.4,34.8z"/>
</svg>
