<?xml version="1.0" standalone="no"?><!DOCTYPE svg PUBLIC "-//W3C//DTD SVG 1.1//EN" "http://www.w3.org/Graphics/SVG/1.1/DTD/svg11.dtd"><svg t="1590009401693" class="icon" viewBox="0 0 1024 1024" version="1.1" xmlns="http://www.w3.org/2000/svg" p-id="3839" xmlns:xlink="http://www.w3.org/1999/xlink" width="200" height="200"><defs><style type="text/css"></style></defs><path d="M849.748419 337.751192A336.361756 336.361756 0 0 0 512 0.002773 336.361756 336.361756 0 0 0 174.251581 337.751192c0 127.615654 67.54115 236.436693 172.628866 292.735207C204.2675 686.784913 95.425128 810.624578 65.40921 968.234818c-3.754656 18.773282 7.509313 41.279888 30.015918 45.034544h7.509313c18.773282 0 33.770575-11.242636 37.546565-30.015918 33.770575-176.383522 187.626159-303.999177 367.785671-307.7325h7.466646c183.892835 0 334.015095-150.12226 334.015096-337.769752z m-600.446374 0c0-146.34627 116.330352-262.697955 262.697955-262.697955 146.34627 0 262.697955 116.351685 262.697955 262.697955 0 142.612947-116.330352 258.964632-258.943299 262.719288h-11.263969c-142.612947-3.754656-255.188642-120.106341-255.188642-262.719288zM759.679329 679.2756c-18.773282-11.263969-41.279888-7.509313-52.522524 11.26397-11.263969 18.773282-7.509313 41.279888 11.242636 52.522524 86.314433 60.053171 146.367604 142.612947 165.119553 240.212683 3.77599 18.751949 18.773282 29.994585 37.546565 29.994585h7.509313c18.773282-3.754656 33.770575-22.506606 30.015918-45.013211-22.506606-116.351685-93.823746-217.684744-198.911461-288.980551z" p-id="3840"></path></svg>