<?xml version="1.0" encoding="utf-8"?>
<!-- Generator: Adobe Illustrator 24.1.2, SVG Export Plug-In . SVG Version: 6.00 Build 0)  -->
<svg version="1.1" id="Layer_1" xmlns="http://www.w3.org/2000/svg" xmlns:xlink="http://www.w3.org/1999/xlink" x="0px" y="0px"
	 viewBox="0 0 200 200" style="enable-background:new 0 0 200 200;" xml:space="preserve">
<style type="text/css">
	.st0{fill:#6B778C;}
</style>
<path class="st0" d="M166,66c0.1-36.3-29.1-65.8-65.4-66c-0.2,0-0.4,0-0.5,0C63.7-0.1,34.2,29.1,34,65.4c0,0.2,0,0.4,0,0.5
	c0,24.9,13.2,46.2,33.7,57.2c-27.9,11-49.1,35.2-55,66c-0.7,3.7,1.5,8.1,5.9,8.8h1.5c3.7,0,6.6-2.2,7.3-5.9
	c6.6-34.4,36.6-59.4,71.8-60.1h1.5C136.6,131.9,166,102.6,166,66L166,66z M48.7,66c0-28.6,22.7-51.3,51.3-51.3
	c28.6,0,51.3,22.7,51.3,51.3c0,27.9-22.7,50.6-50.6,51.3h-2.2C70.7,116.5,48.7,93.8,48.7,66z M148.4,132.7
	c-3.7-2.2-8.1-1.5-10.3,2.2c-2.2,3.7-1.5,8.1,2.2,10.3c16.9,11.7,28.6,27.9,32.2,46.9c0.7,3.7,3.7,5.9,7.3,5.9h1.5
	c3.7-0.7,6.6-4.4,5.9-8.8C182.8,166.4,168.9,146.6,148.4,132.7L148.4,132.7z"/>
</svg>
