<?xml version="1.0" encoding="utf-8"?>
<!-- Generator: Adobe Illustrator 24.1.3, SVG Export Plug-In . SVG Version: 6.00 Build 0)  -->
<svg version="1.1" id="Layer_1" xmlns="http://www.w3.org/2000/svg" xmlns:xlink="http://www.w3.org/1999/xlink" x="0px" y="0px"
	 viewBox="0 0 200 200" style="enable-background:new 0 0 200 200;" xml:space="preserve">
<style type="text/css">
	.st0{fill:#6B778C;}
</style>
<path class="st0" d="M196.9,100c0,53.5-43.4,96.9-96.9,96.9S3.1,153.5,3.1,100C3.1,46.5,46.5,3.1,100,3.1S196.9,46.5,196.9,100z
	 M102.6,35.2c-21.3,0-34.9,9-45.5,24.9c-1.4,2.1-0.9,4.8,1.1,6.4l13.6,10.3c2,1.5,4.9,1.2,6.5-0.8c7-8.9,11.8-14,22.4-14
	c8,0,17.9,5.1,17.9,12.9c0,5.8-4.8,8.9-12.7,13.3c-9.2,5.2-21.3,11.6-21.3,27.6v1.6c0,2.6,2.1,4.7,4.7,4.7h21.9
	c2.6,0,4.7-2.1,4.7-4.7v-0.5c0-11.1,32.5-11.6,32.5-41.7C148.1,52.3,124.6,35.2,102.6,35.2z M100,132c-9.9,0-18,8.1-18,18
	c0,9.9,8.1,18,18,18s18-8.1,18-18C118,140.1,109.9,132,100,132z"/>
</svg>
