<?xml version="1.0" encoding="utf-8"?>
<!-- Generator: Adobe Illustrator 24.1.3, SVG Export Plug-In . SVG Version: 6.00 Build 0)  -->
<svg version="1.1" id="Layer_1" xmlns="http://www.w3.org/2000/svg" xmlns:xlink="http://www.w3.org/1999/xlink" x="0px" y="0px"
	 viewBox="0 0 276.4 200" style="enable-background:new 0 0 276.4 200;" xml:space="preserve">
<style type="text/css">
	.st0{fill:#6B778C;}
</style>
<path class="st0" d="M99.7,179.2c7,5.7,12.7,3.1,12.7-5.9l0.1-34.4c0,0,8.3,0.2,13.1,0.4c14.3,0.7,28.9,2.5,43.3,5.4
	c38.3,7.9,68.7,23.1,87,47c11.4,14.9,20.6,8,20.6-6.9c0-58.7-29.2-97.5-78.2-118.7c-31.4-13.6-85.9-18-85.9-18V9
	c0-9-5.7-11.7-12.6-5.9L5.2,80.7c-7,5.7-7,15.1,0,20.8L99.7,179.2z M100.8,70.7c30.1,0.1,60.3,4.3,88.2,16.3
	c41.1,17.8,61,67.2,60.8,67.1c-20.6-15.3-46.6-25.6-76.5-31.8c-15.5-3.2-31.3-5-46.7-5.8c-10.5-0.5-24.2-0.1-24.2-0.1
	c-7.2,0.2-13,6.1-13,13.4l0.1,11.4L28.7,91.1l60.8-50l-0.1,16.5C89.4,64.8,95.2,70.7,100.8,70.7L100.8,70.7z"/>
</svg>
