<?xml version="1.0" encoding="utf-8"?>
<!-- Generator: Adobe Illustrator 24.1.2, SVG Export Plug-In . SVG Version: 6.00 Build 0)  -->
<svg version="1.1" id="Layer_1" xmlns="http://www.w3.org/2000/svg" xmlns:xlink="http://www.w3.org/1999/xlink" x="0px" y="0px"
	 viewBox="0 0 216.6 200" style="enable-background:new 0 0 216.6 200;" xml:space="preserve">
<style type="text/css">
	.st0{fill:#6B778C;}
</style>
<path class="st0" d="M87.7,157.7c-43.6,0.3-79.1-34.8-79.3-78.4c0-0.3,0-0.6,0-1C8.1,34.8,43.1-0.8,86.7-1c0.3,0,0.7,0,1,0
	c43.6-0.3,79.1,34.8,79.3,78.4c0,0.3,0,0.6,0,1c0.3,43.6-34.8,79.1-78.4,79.3C88.3,157.7,88,157.7,87.7,157.7L87.7,157.7z
	 M87.7,21.6c-31-0.3-56.4,24.6-56.7,55.6c0,0.4,0,0.7,0,1.1C31,110.1,56,135,87.7,135c31.7,0,56.7-24.9,56.7-56.7
	C144.4,46.6,119.4,21.6,87.7,21.6L87.7,21.6z M194.2,195.6L160.4,162c-4.3-4.1-4.5-11-0.4-15.3c0.1-0.1,0.3-0.3,0.4-0.4
	c4.5-4.5,11.2-4.5,15.7,0l33.7,33.6c4.3,4.1,4.5,11,0.4,15.3c-0.1,0.1-0.3,0.3-0.4,0.4c-4.2,4.3-11.1,4.5-15.4,0.3
	C194.4,195.8,194.3,195.7,194.2,195.6L194.2,195.6z"/>
</svg>
