<?xml version="1.0" encoding="utf-8"?>
<!-- Generator: Adobe Illustrator 24.1.3, SVG Export Plug-In . SVG Version: 6.00 Build 0)  -->
<svg version="1.1" id="Layer_1" xmlns="http://www.w3.org/2000/svg" xmlns:xlink="http://www.w3.org/1999/xlink" x="0px" y="0px"
	 viewBox="0 0 224.8 200" style="enable-background:new 0 0 224.8 200;" xml:space="preserve">
<style type="text/css">
	.st0{fill:#6B778C;}
</style>
<path class="st0" d="M206.3,67l-57.1-8.3L123.7,7c-4.6-9.2-17.8-9.3-22.4,0L75.8,58.7L18.7,67C8.5,68.5,4.4,81.1,11.8,88.3
	l41.3,40.2l-9.8,56.8c-1.8,10.3,9.1,18,18.1,13.2l51-26.8l51,26.8c9.1,4.8,19.9-2.9,18.1-13.2l-9.8-56.8l41.3-40.2
	C220.6,81.1,216.5,68.5,206.3,67L206.3,67z M151.8,122L161,176l-48.5-25.5L63.9,176l9.3-54.1L33.9,83.7l54.3-7.9l24.3-49.2
	l24.3,49.2l54.3,7.9L151.8,122L151.8,122z"/>
</svg>
