<?xml version="1.0" encoding="utf-8"?>
<!-- Generator: Adobe Illustrator 24.1.2, SVG Export Plug-In . SVG Version: 6.00 Build 0)  -->
<svg version="1.1" id="Layer_1" xmlns="http://www.w3.org/2000/svg" xmlns:xlink="http://www.w3.org/1999/xlink" x="0px" y="0px"
	 viewBox="0 0 200 200" style="enable-background:new 0 0 200 200;" xml:space="preserve">
<style type="text/css">
	.st0{fill:#6B778C;}
</style>
<path class="st0" d="M0,98.5V18.8C0,8.4,8.4,0,18.8,0h79.7c5,0,9.7,2,13.3,5.5l82.8,82.8c7.3,7.3,7.3,19.2,0,26.5l-79.7,79.7
	c-7.3,7.3-19.2,7.3-26.5,0L5.5,111.7C2,108.2,0,103.5,0,98.5z M43.8,25C33.4,25,25,33.4,25,43.8s8.4,18.8,18.8,18.8
	s18.8-8.4,18.8-18.8S54.1,25,43.8,25z"/>
</svg>
