<?xml version="1.0" encoding="utf-8"?>
<!-- Generator: Adobe Illustrator 24.1.2, SVG Export Plug-In . SVG Version: 6.00 Build 0)  -->
<svg version="1.1" id="Layer_1" xmlns="http://www.w3.org/2000/svg" xmlns:xlink="http://www.w3.org/1999/xlink" x="0px" y="0px"
	 viewBox="0 0 200 200" style="enable-background:new 0 0 200 200;" xml:space="preserve">
<style type="text/css">
	.st0{fill:#65748C;}
</style>
<path class="st0" d="M100,12.5c48.4,0,87.5,39.4,87.5,87.5c0,48.4-39.1,87.5-87.5,87.5S12.5,148.1,12.5,100
	C12.5,51.6,51.9,12.5,100,12.5z M142.3,113.2l-36.2-12.1V49.2c-0.1-3.8-3.1-6.9-6.9-6.9c-3.8,0.1-6.8,3.1-6.9,6.9v56.6
	c-0.3,2.6,1.3,5,4,6.4l40.2,13.5c1.1,0.3,1.9,0.5,2.9,0.5c0.8,0,1.6,0,2.6-0.3c1.6-0.6,3-1.9,3.7-3.5c0.7-1.7,0.8-3.6,0.3-5.3
	C145.5,115.3,144.1,113.9,142.3,113.2L142.3,113.2z"/>
</svg>
