<?xml version="1.0" encoding="utf-8"?>
<!-- Generator: Adobe Illustrator 24.1.3, SVG Export Plug-In . SVG Version: 6.00 Build 0)  -->
<svg version="1.1" id="Layer_1" xmlns="http://www.w3.org/2000/svg" xmlns:xlink="http://www.w3.org/1999/xlink" x="0px" y="0px"
	 viewBox="0 0 200 200" style="enable-background:new 0 0 200 200;" xml:space="preserve">
<style type="text/css">
	.st0{fill:#6B778C;}
</style>
<path class="st0" d="M62.5,50V37.5c0-3.5,2.8-6.2,6.2-6.2h12.5c0-10.4,8.4-18.8,18.8-18.8s18.8,8.4,18.8,18.8h12.5
	c3.5,0,6.2,2.8,6.2,6.2V50c0,3.5-2.8,6.2-6.2,6.2H68.8C65.3,56.2,62.5,53.5,62.5,50z M175,62.5V175c0,6.9-5.6,12.5-12.5,12.5h-125
	c-6.9,0-12.5-5.6-12.5-12.5V62.5C25,55.6,30.6,50,37.5,50H50v18.8c0,3.5,2.8,6.2,6.2,6.2h87.5c3.5,0,6.2-2.8,6.2-6.2V50h12.5
	C169.4,50,175,55.6,175,62.5z M144.1,96.5c-3.7-3.7-9.6-3.7-13.3,0l-43.4,43.4l-18.4-18.4c-3.7-3.7-9.6-3.7-13.3,0
	c-3.7,3.7-3.7,9.6,0,13.3l25,25c3.7,3.7,9.6,3.7,13.3,0l50-50C147.8,106.1,147.8,100.2,144.1,96.5z"/>
</svg>
