<?xml version="1.0" standalone="no"?><!DOCTYPE svg PUBLIC "-//W3C//DTD SVG 1.1//EN" "http://www.w3.org/Graphics/SVG/1.1/DTD/svg11.dtd"><svg t="1591662712633" class="icon" viewBox="0 0 1024 1024" version="1.1" xmlns="http://www.w3.org/2000/svg" p-id="28090" xmlns:xlink="http://www.w3.org/1999/xlink" width="200" height="200"><defs><style type="text/css"></style></defs><path d="M884.5 312.6c0-95.6-77.5-173.1-173.1-173.1S538.3 217 538.3 312.6v173.1h173.1c95.6-0.1 173.1-77.6 173.1-173.1z m-283.4 0c0-60.8 49.5-110.3 110.3-110.3s110.3 49.5 110.3 110.3-49.5 110.3-110.3 110.3H601.1V312.6zM139.5 711.4c0 95.6 77.5 173.1 173.1 173.1S485.7 807 485.7 711.4v-173H312.6c-95.6 0-173.1 77.5-173.1 173z m173.1-225.8h173.1v-173c0-95.6-77.5-173.1-173.1-173.1S139.5 217 139.5 312.6c0 95.5 77.5 173 173.1 173z m398.8 52.8h-173v173.1c0 95.6 77.5 173.1 173.1 173.1s173-77.6 173-173.2-77.5-173-173.1-173z" fill="" p-id="28091"></path></svg>