<?xml version="1.0" encoding="utf-8"?>
<!-- Generator: Adobe Illustrator 24.1.2, SVG Export Plug-In . SVG Version: 6.00 Build 0)  -->
<svg version="1.1" id="Layer_1" xmlns="http://www.w3.org/2000/svg" xmlns:xlink="http://www.w3.org/1999/xlink" x="0px" y="0px"
	 viewBox="0 0 200 200" style="enable-background:new 0 0 200 200;" xml:space="preserve">
<style type="text/css">
	.st0{fill:#6B778C;}
</style>
<path class="st0" d="M77.6,100c0,12.1,10,21.9,22.3,21.9s22.3-9.8,22.3-21.9v-0.2c-2.4,2.4-5.7,3.8-9.3,3.8c-7.2,0-13-5.7-13-12.8
	c0-5.1,3.1-9.5,7.4-11.5c-2.3-0.8-4.8-1.2-7.4-1.2C87.7,78.1,77.6,87.9,77.6,100L77.6,100z M184.3,87.5c-13.9-17.3-47.6-46-84.3-46
	c-36.8,0-70.5,28.7-84.4,46c-3.1,3.9-4.8,8.2-5,12.5c0.1,4.2,1.8,8.5,5,12.5c13.9,17.3,47.6,46,84.4,46s70.5-28.7,84.4-46
	c3.2-3.9,4.9-8.2,5-12.5C189.2,95.8,187.5,91.5,184.3,87.5L184.3,87.5z M100,136.5c-20.5,0-37.2-16.4-37.2-36.5S79.4,63.5,100,63.5
	s37.2,16.4,37.2,36.5S120.5,136.5,100,136.5z"/>
</svg>
